# xmcd
#
# Track frame offsets: 
#        150
#        21860
#        40932
#        58270
#        78087
#        100307
#        115925
#        135050
#        150265
#        162477
#        201890
#
# Disc length: 4729 seconds
#
# Revision: 6
# Processed by: cddbd v1.5.1PL0 Copyright (c) Steve Scherf et al.
# Submitted via: ExactAudioCopy v0.90b4
#
DISCID=8212770b
DTITLE=David Gray - The EP's 92-94
DYEAR=2001
DGENRE=Rock
TTITLE0=Birds Without Wings
TTITLE1=L's Song
TTITLE2=The Light
TTITLE3=Shine
TTITLE4=Brick Walls
TTITLE5=The Rice
TTITLE6=Wisdom
TTITLE7=Lovers
TTITLE8=4:AM
TTITLE9=Coming Down
TTITLE10=ENHANCED MULTIMEDIA: SHINE - WISDOM VIDEOS
EXTD=YEAR: 2000
EXTT0=
EXTT1=
EXTT2=
EXTT3=
EXTT4=
EXTT5=
EXTT6=
EXTT7=
EXTT8=
EXTT9=
EXTT10=
PLAYORDER=
